<mxfile host="app.diagrams.net" modified="2022-04-05T18:18:36.460Z" agent="5.0 (Windows NT 10.0; Win64; x64) AppleWebKit/537.36 (KHTML, like Gecko) Chrome/100.0.4896.75 Safari/537.36" etag="XU8ENcB-vxEt8A4gnOq6" version="16.5.2" type="github">
  <diagram id="C5RBs43oDa-KdzZeNtuy" name="Page-1">
    <mxGraphModel dx="964" dy="587" grid="1" gridSize="10" guides="1" tooltips="1" connect="1" arrows="1" fold="1" page="1" pageScale="1" pageWidth="827" pageHeight="1169" math="0" shadow="0">
      <root>
        <mxCell id="WIyWlLk6GJQsqaUBKTNV-0" />
        <mxCell id="WIyWlLk6GJQsqaUBKTNV-1" parent="WIyWlLk6GJQsqaUBKTNV-0" />
        <mxCell id="Le2dKLiUhNbSfbO8C7bU-3" value="" style="edgeStyle=orthogonalEdgeStyle;rounded=0;orthogonalLoop=1;jettySize=auto;html=1;" edge="1" parent="WIyWlLk6GJQsqaUBKTNV-1" source="Le2dKLiUhNbSfbO8C7bU-0" target="Le2dKLiUhNbSfbO8C7bU-2">
          <mxGeometry relative="1" as="geometry" />
        </mxCell>
        <mxCell id="Le2dKLiUhNbSfbO8C7bU-5" value="" style="edgeStyle=orthogonalEdgeStyle;rounded=0;orthogonalLoop=1;jettySize=auto;html=1;" edge="1" parent="WIyWlLk6GJQsqaUBKTNV-1" source="Le2dKLiUhNbSfbO8C7bU-0" target="Le2dKLiUhNbSfbO8C7bU-1">
          <mxGeometry relative="1" as="geometry" />
        </mxCell>
        <mxCell id="Le2dKLiUhNbSfbO8C7bU-0" value="Python script to monitor" style="rounded=0;whiteSpace=wrap;html=1;" vertex="1" parent="WIyWlLk6GJQsqaUBKTNV-1">
          <mxGeometry x="80" y="180" width="160" height="40" as="geometry" />
        </mxCell>
        <mxCell id="Le2dKLiUhNbSfbO8C7bU-1" value="Heroku Server." style="rounded=0;whiteSpace=wrap;html=1;" vertex="1" parent="WIyWlLk6GJQsqaUBKTNV-1">
          <mxGeometry x="354" y="170" width="120" height="60" as="geometry" />
        </mxCell>
        <mxCell id="Le2dKLiUhNbSfbO8C7bU-2" value="Mining Server" style="ellipse;whiteSpace=wrap;html=1;" vertex="1" parent="WIyWlLk6GJQsqaUBKTNV-1">
          <mxGeometry x="100" y="70" width="120" height="80" as="geometry" />
        </mxCell>
      </root>
    </mxGraphModel>
  </diagram>
</mxfile>
